<?xml version="1.0" standalone="no"?>
<!DOCTYPE svg PUBLIC "-//W3C//DTD SVG 20010904//EN"
 "http://www.w3.org/TR/2001/REC-SVG-20010904/DTD/svg10.dtd">
<svg version="1.0" xmlns="http://www.w3.org/2000/svg"
 width="360.000000pt" height="360.000000pt" viewBox="0 0 360.000000 360.000000"
 preserveAspectRatio="xMidYMid meet">
<metadata>
Created by potrace 1.16, written by Peter Selinger 2001-2019
</metadata>
<g transform="translate(0.000000,360.000000) scale(0.100000,-0.100000)"
fill="#000000" stroke="none">
<path d="M1595 3454 c-733 -104 -1293 -624 -1447 -1340 -20 -96 -23 -136 -23
-339 0 -203 3 -243 23 -339 144 -670 648 -1174 1318 -1318 96 -20 136 -23 339
-23 203 0 243 3 339 23 670 144 1174 648 1318 1318 20 96 23 136 23 339 0 203
-3 243 -23 339 -143 668 -647 1173 -1313 1317 -86 18 -140 23 -314 25 -115 1
-223 0 -240 -2z m192 -304 c15 -53 16 -54 28 -29 8 14 20 56 28 95 15 67 15
68 16 24 1 -25 -7 -73 -16 -105 -17 -60 -19 -112 -7 -194 7 -56 -12 -47 -21
10 -9 50 -16 43 -44 -42 -21 -63 -50 -117 -51 -93 0 7 17 61 38 122 l38 110
-18 53 c-10 29 -20 85 -23 124 -4 65 -4 67 6 25 5 -25 17 -70 26 -100z m388
-287 c-2 -6 5 -13 16 -16 10 -3 19 0 19 6 0 6 7 1 16 -12 13 -18 18 -20 25
-10 7 11 9 11 9 1 0 -20 50 -35 67 -20 12 10 14 9 11 -4 -1 -9 1 -17 5 -17 5
0 15 -8 22 -17 12 -17 14 -17 39 -1 29 19 34 13 11 -13 -14 -15 -14 -18 -1
-23 9 -4 25 8 43 31 15 20 28 39 28 42 0 10 49 60 58 60 6 0 3 -8 -5 -17 -18
-21 -78 -126 -78 -138 0 -4 7 -2 15 5 13 11 14 10 9 -4 -3 -9 -1 -16 5 -16 6
0 11 7 11 17 0 27 13 6 14 -23 1 -15 9 -32 20 -38 11 -6 29 -22 41 -35 l22
-25 42 33 c42 33 55 33 24 -1 -32 -35 -24 -78 15 -84 24 -4 50 -35 45 -53 -3
-11 1 -22 8 -26 8 -5 10 -4 5 3 -4 7 -1 12 8 12 9 0 16 -5 16 -12 0 -6 11 -1
25 12 14 13 25 19 25 13 0 -5 -11 -20 -25 -33 -32 -30 -32 -38 1 -32 25 4 26
3 20 -21 -8 -34 2 -57 21 -50 13 5 15 1 10 -18 -3 -13 -2 -31 3 -38 7 -12 12
-12 34 3 31 19 35 5 6 -24 -11 -11 -15 -22 -9 -25 5 -4 6 -11 3 -17 -5 -8 3
-9 24 -5 30 6 32 5 32 -23 0 -24 5 -29 28 -32 l27 -4 -25 -11 c-22 -10 -23
-12 -5 -12 12 -1 26 -6 32 -12 8 -8 17 -8 33 1 12 6 23 10 25 8 5 -5 -119
-103 -127 -101 -23 8 -68 -102 -67 -162 1 -70 -18 -134 -59 -197 -34 -53 -44
-47 -16 8 13 25 30 80 39 122 26 124 46 188 70 218 21 27 21 29 7 76 -17 51
-11 73 12 43 8 -11 15 -14 20 -7 3 6 0 17 -8 25 -11 11 -12 17 -3 26 17 17 -4
13 -24 -5 -16 -14 -20 -10 -60 66 -23 45 -64 112 -91 148 -26 37 -46 73 -43
80 3 7 1 11 -4 8 -4 -3 -33 19 -64 49 -30 30 -84 75 -119 101 l-63 46 -6 -53
c-7 -58 -26 -115 -35 -106 -3 3 -1 29 5 57 16 72 14 104 -7 123 -22 20 -180
98 -247 122 -67 24 -72 31 -44 53 22 18 25 19 46 3 12 -9 21 -21 18 -28z
m-1063 -91 c21 -29 43 -50 49 -46 5 3 -13 32 -41 64 -61 71 -65 89 -7 33 59
-57 117 -84 104 -49 -4 10 -1 13 9 9 8 -3 14 1 14 11 0 9 5 16 11 16 6 0 8 -7
5 -16 -5 -13 -3 -14 6 -7 21 16 47 23 53 13 3 -5 -24 -25 -61 -46 -157 -88
-302 -219 -386 -349 -64 -99 -82 -129 -83 -135 0 -3 -19 -52 -42 -110 -38 -97
-63 -195 -78 -312 -3 -27 -10 -48 -16 -48 -12 0 -11 59 5 152 10 65 10 78 -2
83 -7 3 -12 11 -9 18 2 6 -8 18 -22 24 -25 12 -24 13 16 10 44 -3 61 11 40 32
-6 6 -7 11 -2 11 5 0 -2 11 -15 26 -20 20 -22 27 -11 33 8 5 27 5 43 0 26 -7
28 -6 22 13 -4 14 -2 18 5 14 21 -13 11 10 -14 34 -13 12 -22 27 -19 31 8 14
24 10 24 -6 0 -22 21 -18 27 5 3 11 12 20 19 20 8 0 14 5 14 10 0 6 -6 10 -14
10 -16 0 -31 18 -22 27 3 3 17 -2 31 -11 23 -15 25 -15 27 1 0 10 0 26 0 36
-1 11 3 17 10 15 7 -3 34 23 60 56 25 34 58 75 72 91 l24 30 -26 23 c-15 13
-20 20 -12 16 8 -4 23 -14 32 -22 16 -13 21 -11 57 26 22 23 58 53 80 67 29
19 38 31 33 43 -8 22 -59 100 -86 132 l-21 25 29 -25 c16 -14 46 -49 68 -78z
m777 6 c14 -45 14 -46 65 -52 28 -3 78 -6 110 -6 79 0 179 -34 211 -72 l25
-30 0 28 c0 28 0 28 20 9 21 -22 55 -95 43 -95 -3 0 -14 6 -22 14 -24 21 -191
103 -236 115 -22 6 -77 11 -121 11 -92 0 -97 3 -119 76 -18 59 -18 57 -3 52 7
-3 19 -25 27 -50z m-159 15 c0 -3 -6 -29 -14 -57 -35 -121 -39 -142 -38 -156
2 -8 -9 -48 -22 -87 l-25 -72 34 -21 c51 -31 100 -92 120 -146 10 -27 33 -87
52 -134 19 -47 52 -132 75 -189 l41 -104 63 6 c35 4 77 13 93 21 l29 16 -52
132 c-29 73 -79 209 -111 301 -53 155 -57 170 -42 184 14 14 22 15 57 4 42
-12 57 -36 16 -25 -25 6 -44 -10 -25 -22 6 -3 15 0 20 7 7 11 9 11 9 1 0 -7 5
-10 10 -7 6 3 10 -4 11 -17 0 -13 3 -17 6 -10 8 21 33 13 33 -10 0 -19 2 -20
10 -8 5 8 10 25 10 38 0 29 17 25 110 -25 132 -71 271 -202 335 -317 107 -193
126 -455 42 -583 l-32 -48 -6 65 c-6 77 -13 94 -44 114 l-24 16 39 41 c31 33
80 127 80 155 0 2 -14 -3 -31 -11 -140 -73 -319 -110 -319 -67 0 10 7 27 15
38 25 33 16 39 -15 9 -26 -25 -32 -27 -40 -15 -6 9 -10 10 -10 3 0 -12 -57
-29 -67 -20 -3 3 10 13 29 22 38 20 76 52 89 77 7 14 1 12 -26 -7 -115 -77
-292 -95 -399 -40 -41 22 -43 12 -4 -20 29 -25 88 -55 178 -92 25 -11 24 -11
-20 -31 -71 -30 -142 -42 -258 -42 -197 0 -394 48 -600 145 l-92 44 6 -27 c10
-42 41 -98 75 -137 17 -19 26 -35 21 -35 -22 0 -54 -62 -66 -127 l-12 -68 -23
84 c-32 117 -36 207 -17 320 30 171 108 314 239 437 81 77 147 119 263 169 76
33 79 36 85 72 l6 38 2 -35 c1 -19 6 -44 11 -55 8 -19 9 -18 9 4 1 13 11 40
23 59 12 19 23 54 24 77 2 22 8 54 15 70 6 17 13 37 14 45 4 30 17 60 26 60 5
0 9 -3 9 -7z m772 -260 c10 -9 18 -23 19 -32 0 -10 2 -12 6 -4 3 8 21 -9 46
-40 22 -28 52 -63 65 -77 37 -37 122 -169 128 -199 3 -14 10 -35 15 -46 5 -11
13 -33 19 -49 9 -25 9 -27 -4 -17 -8 6 -17 24 -21 39 -3 15 -19 41 -35 57 -16
17 -52 76 -80 132 -39 77 -60 108 -86 123 -18 12 -43 33 -53 47 -11 13 -24 22
-29 19 -15 -9 -34 21 -27 44 8 24 13 25 37 3z m-1462 -98 c-11 -22 -20 -44
-20 -51 0 -6 -10 -22 -22 -36 -13 -14 -31 -35 -41 -47 -10 -12 -21 -19 -26
-16 -5 2 -11 -2 -15 -10 -7 -18 5 -20 22 -3 6 6 14 9 18 6 3 -4 -4 -16 -16
-28 -13 -13 -27 -48 -36 -93 -8 -39 -17 -73 -19 -76 -6 -5 -35 64 -35 81 0 15
38 93 74 153 21 36 128 164 133 160 2 -1 -6 -19 -17 -40z m1914 -446 c5 -19
15 -37 20 -41 7 -5 7 -8 1 -8 -6 0 -10 -70 -10 -188 -1 -225 -16 -294 -101
-469 -29 -62 -54 -115 -54 -119 0 -4 15 -20 33 -35 36 -31 23 -38 -25 -13 -29
15 -30 15 -24 -1 5 -15 4 -16 -9 -5 -12 10 -16 9 -21 -4 -3 -9 -13 -16 -21
-16 -8 0 -11 -5 -7 -11 3 -6 19 -9 35 -5 16 3 29 1 29 -4 0 -6 -7 -10 -15 -10
-8 0 -15 -5 -15 -10 0 -7 -7 -7 -21 0 -11 7 -23 9 -26 6 -3 -3 2 -8 11 -12 13
-5 8 -11 -24 -25 -25 -11 -39 -23 -34 -30 4 -8 0 -8 -15 1 -22 11 -22 12 16
53 21 23 45 51 53 63 8 11 24 26 35 32 11 6 15 12 8 12 -11 0 3 28 66 130 8
14 16 30 17 35 1 6 14 37 27 70 67 160 83 405 40 616 -9 44 18 34 31 -12z
m-513 -423 c35 -17 79 -77 79 -110 0 -20 -3 -20 -41 0 -45 23 -46 10 -3 -17
49 -30 28 -37 -26 -9 -23 12 -45 18 -48 14 -4 -4 -1 -9 6 -12 8 -2 25 -17 40
-33 29 -34 48 -37 57 -10 8 25 44 71 56 71 14 0 -38 -98 -83 -157 -22 -29 -47
-53 -54 -53 -8 0 -14 1 -14 3 0 1 -29 74 -65 162 -47 117 -61 162 -52 168 19
12 108 3 148 -17z m-1057 -16 c215 -52 406 -64 597 -35 68 10 106 12 118 5 19
-9 105 -208 134 -307 26 -87 -2 -141 -96 -190 -137 -69 -373 -89 -537 -45
-100 27 -191 74 -226 114 -37 45 -32 92 28 257 47 130 50 145 35 156 -23 17
-127 39 -137 28 -5 -4 -29 -62 -55 -128 -25 -66 -50 -124 -56 -130 -12 -12
-46 28 -85 98 -44 81 -19 147 71 188 53 25 67 24 209 -11z m-307 -547 c-31
-59 -91 -166 -136 -236 -44 -71 -75 -127 -68 -124 6 3 78 35 158 71 80 36 158
68 172 72 36 9 36 -13 0 -27 -51 -19 -269 -115 -420 -185 -40 -18 -73 -32 -73
-30 0 1 22 17 49 34 39 26 66 58 129 155 71 110 122 198 122 211 0 3 -14 13
-31 22 -23 11 -34 13 -39 5 -4 -8 -15 -3 -33 14 -25 26 -26 26 -76 11 -28 -8
-51 -13 -51 -11 0 3 26 18 58 34 31 17 50 30 42 31 -12 0 -12 3 2 11 14 8 25
2 54 -31 21 -23 49 -47 64 -55 26 -14 27 -13 59 53 46 95 64 121 69 100 2 -9
-21 -65 -51 -125z m1449 99 c-3 -10 3 -35 14 -57 11 -22 20 -49 20 -61 0 -12
7 -25 16 -28 29 -11 37 -6 20 13 -17 19 -17 20 13 19 36 -1 40 -17 11 -43 -19
-17 -19 -18 7 -64 110 -188 220 -331 255 -331 6 0 9 -2 6 -5 -2 -3 -90 35
-194 84 -300 140 -340 151 -315 81 9 -28 9 -31 -4 -20 -15 12 -35 6 -35 -12 0
-5 10 -24 22 -41 20 -29 20 -31 2 -14 -11 9 -25 17 -31 17 -6 0 -14 7 -17 16
-3 8 -10 12 -16 9 -5 -3 -10 1 -10 10 0 12 -5 15 -16 11 -9 -3 -20 -6 -26 -6
-6 0 -8 -6 -5 -14 3 -8 0 -19 -7 -26 -10 -8 -15 -7 -19 4 -9 22 -49 8 -42 -14
3 -10 1 -21 -5 -25 -7 -4 -14 1 -17 13 -4 17 -9 18 -43 10 -37 -10 -38 -11
-33 -51 l4 -42 -21 38 c-22 39 -20 39 -95 21 -34 -8 -126 -12 -138 -6 -23 11
-137 6 -142 -5 -6 -18 -25 -16 -25 2 0 8 -6 15 -14 15 -7 0 -19 -7 -26 -15
-17 -21 -30 -19 -30 4 0 26 -7 29 -76 37 -32 4 -65 14 -73 21 -11 12 -16 12
-30 -2 -24 -21 -31 -19 -28 6 1 16 -4 22 -21 24 -16 1 -19 -2 -12 -9 13 -13
13 -36 1 -36 -5 0 -11 8 -13 18 -3 11 -13 0 -32 -36 -15 -30 -30 -52 -33 -49
-5 6 17 77 29 91 12 15 10 28 -3 20 -7 -4 -10 -1 -7 7 3 8 11 13 17 12 6 -2
11 2 11 7 0 6 -6 10 -14 10 -8 0 -23 8 -32 18 -15 14 -17 15 -12 1 4 -11 -6
-28 -28 -49 -19 -18 -37 -30 -40 -28 -6 7 44 118 54 118 5 0 47 -19 93 -43
150 -77 419 -137 419 -93 0 30 55 77 133 114 45 21 123 65 172 96 75 49 85 53
60 26 -16 -17 -49 -43 -73 -57 -24 -14 -41 -27 -39 -29 7 -7 83 19 139 47 31
16 82 49 113 74 l56 46 -16 -37 c-8 -20 -23 -43 -33 -50 -9 -7 -15 -14 -12
-17 3 -2 76 -34 162 -71 87 -37 196 -84 243 -106 47 -21 85 -37 85 -35 0 2
-42 71 -93 152 -52 81 -111 178 -131 215 -36 65 -37 68 -20 92 19 30 28 34 20
8z"/>
<path d="M1577 2207 c-32 -94 -82 -235 -111 -312 -46 -122 -56 -141 -82 -151
l-29 -12 40 -10 c39 -10 60 -14 136 -27 44 -7 36 -23 145 293 76 220 84 263
59 311 -16 32 -70 81 -88 81 -7 0 -38 -78 -70 -173z"/>
<path d="M2506 2005 c-11 -8 -28 -15 -37 -15 -10 0 -21 -5 -25 -11 -5 -8 1
-10 20 -7 14 3 26 1 26 -3 0 -5 -7 -9 -15 -9 -8 0 -15 -4 -15 -9 0 -14 -38
-20 -44 -7 -2 6 -5 3 -5 -7 -1 -10 -7 -17 -13 -15 -7 1 -26 -5 -43 -15 -27
-15 -28 -16 -7 -17 29 0 28 -26 -2 -34 -13 -3 -26 -15 -29 -26 -6 -23 -3 -25
15 -7 37 35 88 67 88 55 0 -9 3 -9 8 -2 4 6 19 14 35 18 25 6 27 4 27 -23 l0
-29 43 15 c23 8 45 18 50 22 11 11 -31 141 -46 141 -7 0 -21 -7 -31 -15z"/>
<path d="M2185 802 c-27 -14 -97 -36 -155 -49 -173 -41 -183 -44 -212 -75 -36
-39 -36 -61 2 -75 17 -6 28 -7 25 -2 -7 10 18 16 105 23 109 10 283 65 382
121 46 26 45 28 -48 63 l-49 18 -50 -24z"/>
</g>
</svg>
